# xmcd CD database file
# Copyright (C) 1993-1996 Ti Kan
#
# Track frame offsets:
# 225
# 13633
# 25270
# 35408
# 47675
# 62148
# 76593
# 87383
# 99995
# 112938
#
# Disc length: 1656 seconds
# Revision: 0
# Processed by: cddbd v1.4b41PL1 Copyright (c) Steve Scherf et al.
# Submitted via: CDSpectrumPro v3.2.327
#
DISCID=6c06750a
DTITLE=Willie Nelson - Willie Nelson
DYEAR=1900
DGENRE=
TTITLE0=You'll Always Have Someone
TTITLE1=Night Life
TTITLE2=Man With The Blues
TTITLE3=Follow Me Around
TTITLE4=Rainy Day Blues
TTITLE5=So Much To Do
TTITLE6=I Feel Sorry For Him
TTITLE7=The Storm Has Just Begun
TTITLE8=Shelter Of My Arms
TTITLE9=What A Way To Live
EXTD=
EXTT0=
EXTT1=
EXTT2=
EXTT3=
EXTT4=
EXTT5=
EXTT6=
EXTT7=
EXTT8=
EXTT9=
PLAYORDER=
